HIERARCHY
ROOT root
{
	OFFSET	0	13.1	24.9
	CHANNELS 6  Xposition Yposition Zposition Xrotation Yrotation Zrotation
	JOINT spine_1
	{
		OFFSET	0	9.99999	0
		CHANNELS 3  Xrotation Yrotation Zrotation
		JOINT spine_2
		{
			OFFSET	0	112	-10
			CHANNELS 3  Xrotation Yrotation Zrotation
			JOINT spine_3
			{
				OFFSET	0	206.5	19.3
				CHANNELS 3  Xrotation Yrotation Zrotation
				JOINT spine_4
				{
					OFFSET	0	110.4	14.6
					CHANNELS 3  Xrotation Yrotation Zrotation
					JOINT neck_1
					{
						OFFSET	0	71.8	-50.3
						CHANNELS 3  Xrotation Yrotation Zrotation
						JOINT neck_2
						{
							OFFSET	0	86.2	-25.8
							CHANNELS 3  Xrotation Yrotation Zrotation
							JOINT head_ee
							{
								OFFSET	0	179.8	-8.7
								CHANNELS 3  Xrotation Yrotation Zrotation
								End Site
								{
									OFFSET	1	0	0
								}
							}
						}
					}
					JOINT left_clavicle
					{
						OFFSET	-43.2	22.4	-70.8
						CHANNELS 3  Xrotation Yrotation Zrotation
						JOINT left_shoulder
						{
							OFFSET	-93.9	-5.79999	48.7
							CHANNELS 3  Xrotation Yrotation Zrotation
							JOINT left_elbow
							{
								OFFSET	-291.4	-30.8	15.2
								CHANNELS 3  Xrotation Yrotation Zrotation
								JOINT left_lowarm_twist
								{
									OFFSET	-110.7	-3.89999	13.6
									CHANNELS 3  Xrotation Yrotation Zrotation
									JOINT left_hand
									{
										OFFSET	-110.7	-3.89999	13.6
										CHANNELS 3  Xrotation Yrotation Zrotation
										JOINT left_ee
										{
											OFFSET	-80.8	-5.10001	12.1
											CHANNELS 3  Xrotation Yrotation Zrotation
											End Site
											{
												OFFSET	1	0	0
											}
										}
									}
								}
							}
						}
					}
					JOINT right_clavicle
					{
						OFFSET	43.2	22.4	-70.8
						CHANNELS 3  Xrotation Yrotation Zrotation
						JOINT right_shoulder
						{
							OFFSET	93.9	-5.79999	48.7
							CHANNELS 3  Xrotation Yrotation Zrotation
							JOINT right_elbow
							{
								OFFSET	291.4	-30.8	15.2
								CHANNELS 3  Xrotation Yrotation Zrotation
								JOINT right_lowarm_twist
								{
									OFFSET	110.7	-3.89999	13.6
									CHANNELS 3  Xrotation Yrotation Zrotation
									JOINT right_hand
									{
										OFFSET	110.7	-3.89999	13.6
										CHANNELS 3  Xrotation Yrotation Zrotation
										JOINT right_ee
										{
											OFFSET	80.8	-5.10001	12.1
											CHANNELS 3  Xrotation Yrotation Zrotation
											End Site
											{
												OFFSET	1	0	0
											}
										}
									}
								}
							}
						}
					}
				}
			}
		}
	}
	JOINT left_hip
	{
		OFFSET	-82.8	-127.5	0.300001
		CHANNELS 3  Xrotation Yrotation Zrotation
		JOINT left_knee
		{
			OFFSET	-28.2	-396.7	2.2
			CHANNELS 3  Xrotation Yrotation Zrotation
			JOINT left_ankle
			{
				OFFSET	-11.7	-411.3	35.4
				CHANNELS 3  Xrotation Yrotation Zrotation
				JOINT left_toes
				{
					OFFSET	0	-60	-88.6
					CHANNELS 3  Xrotation Yrotation Zrotation
					JOINT left_foot_ee
					{
						OFFSET	-22.5	-16.5	-42.2
						CHANNELS 3  Xrotation Yrotation Zrotation
						End Site
						{
							OFFSET	1	0	0
						}
					}
				}
			}
		}
	}
	JOINT right_hip
	{
		OFFSET	82.8	-127.5	0.300001
		CHANNELS 3  Xrotation Yrotation Zrotation
		JOINT right_knee
		{
			OFFSET	28.2	-396.7	2.2
			CHANNELS 3  Xrotation Yrotation Zrotation
			JOINT right_ankle
			{
				OFFSET	11.7	-411.3	35.4
				CHANNELS 3  Xrotation Yrotation Zrotation
				JOINT right_toes
				{
					OFFSET	0	-60	-88.6
					CHANNELS 3  Xrotation Yrotation Zrotation
					JOINT right_foot_ee
					{
						OFFSET	22.5	-16.5	-42.2
						CHANNELS 3  Xrotation Yrotation Zrotation
						End Site
						{
							OFFSET	1	0	0
						}
					}
				}
			}
		}
	}
}
MOTION
Frames: 9
Frame Time: 0.02
2979.88975864 692.694 -1870.40457814 -25.4670744087 50.0487522702 25.9306467505 6.36177 0.28467 -0.671446 6.36196 0.326818 -0.651972 6.35805 0.39078 -0.615768 6.35764 0.288629 -0.669754 -13.0614 -13.1014 -0.35318 -13.4889 -24.7172 -4.39676 -0.0 0.0 -0.0 7.52357 -15.4527 14.2376 -3.32023 -29.8747 67.0364 1.03861 -27.225 0.251512 -54.5882 -4.61843 4.90109 -0.825604 -10.7715 -10.1995 -0.0 0.0 -0.0 -0.412 -18.0342 -1.48417 -19.6438 22.752 -71.9015 0.689916 18.8686 -0.114641 28.1096 -0.120904 3.55294 2.60566 -25.9484 -25.7895 0.0 0.0 0.0 26.1981 -15.8284 -1.83969 -5.90548 0.197707 0.884353 20.4458 -1.73677 -2.81901 7.80122 -0.0 -0.0 -0.0 0.0 -0.0 39.5992 -2.65332 -6.26404 -69.3078 3.2843 -9.46577 42.7803 -27.4183 5.51732 26.1407 -0.0 -0.0 0.0 0.0 0.0 
2977.91331192 692.694 -1868.44805875 -25.7617530464 50.5589681057 26.313619143 6.36177 0.28467 -0.671446 6.36196 0.326818 -0.651972 6.35805 0.39078 -0.615768 6.35764 0.288629 -0.669754 -13.0614 -13.1014 -0.35318 -13.4889 -24.7172 -4.39676 -0.0 0.0 -0.0 7.52357 -15.4527 14.2376 -3.32023 -29.8747 67.0364 1.03861 -27.225 0.251512 -54.5882 -4.61843 4.90109 -0.825604 -10.7715 -10.1995 -0.0 0.0 -0.0 -0.412 -18.0342 -1.48417 -19.6438 22.752 -71.9015 0.689916 18.8686 -0.114641 28.1096 -0.120904 3.55294 2.60566 -25.9484 -25.7895 0.0 0.0 0.0 26.1981 -15.8284 -1.83969 -5.90548 0.197707 0.884353 20.4458 -1.73677 -2.81901 7.80122 -0.0 -0.0 -0.0 0.0 -0.0 39.5992 -2.65332 -6.26404 -69.3078 3.2843 -9.46577 42.7803 -27.4183 5.51732 26.1407 -0.0 -0.0 0.0 0.0 0.0 
2957.876019 695.428 -1870.9819485 -26.2208600696 53.5715356828 27.6732342797 6.01436 0.19538 -0.66501 6.01458 0.237299 -0.651231 6.01166 0.305403 -0.622208 6.01118 0.203307 -0.66263 -13.0389 -12.9978 -0.218257 -13.4607 -24.6017 -4.22969 -0.0 0.0 -0.0 7.53081 -15.2986 14.2625 -2.54762 -30.3847 65.5657 1.09255 -28.4222 0.27669 -55.05 -4.67436 4.92061 -0.662706 -11.5836 -9.43216 -0.0 0.0 -0.0 -0.598435 -18.6706 -1.28273 -20.7189 21.7994 -73.2603 0.667232 18.2902 -0.107413 27.7719 -0.129828 3.51073 2.68145 -26.0431 -26.2924 0.0 0.0 0.0 24.7501 -16.0973 -3.03198 -7.47854 0.2349 1.12288 23.2902 -1.84781 -3.16612 7.51079 -0.0 -0.0 -0.0 0.0 -0.0 42.4857 -6.19374 -5.66793 -66.8772 2.98654 -9.23726 43.0526 -27.6514 5.55181 24.2967 -0.0 -0.0 0.0 0.0 0.0 
2929.09523636 691.355 -1872.27562234 -27.6996822669 57.8198819743 30.1535911964 5.87256 0.0626452 -0.697551 5.87283 0.106904 -0.692152 5.87126 0.181767 -0.676361 5.87063 0.0726699 -0.696578 -12.9952 -12.8447 -0.103663 -13.4056 -24.3779 -4.06036 -0.0 0.0 -0.0 7.48698 -14.8856 14.1915 -2.37217 -30.7371 64.0032 1.15884 -29.8571 0.308971 -55.6726 -4.75001 4.94621 -0.419829 -12.7447 -8.2712 -0.0 0.0 -0.0 -0.839445 -19.1069 -0.97932 -21.8274 20.5744 -74.2721 0.639453 17.5765 -0.0988594 27.2831 -0.142305 3.44954 2.7887 -26.2125 -27.014 0.0 0.0 0.0 23.5786 -16.5211 -3.44936 -9.04455 0.265405 1.36125 27.4105 -2.36059 -3.64745 7.09562 -0.0 -0.0 -0.0 0.0 -0.0 44.1648 -10.6521 -5.35499 -64.2781 2.67922 -8.97929 42.8194 -27.7664 5.53502 21.6696 -0.0 -0.0 0.0 0.0 0.0 
2846.36189705 691.475 -1903.14187332 -33.7515441905 59.2366234084 36.1938130445 6.87709 -0.33119 -1.1075 6.87774 -0.26005 -1.12633 6.88191 -0.155921 -1.1454 6.88024 -0.334847 -1.1064 -12.2954 -10.3541 -1.18332 -12.5014 -18.9064 -4.15016 -0.0 0.0 -0.0 8.02566 -12.8259 15.4615 2.17049 -32.7606 66.7318 1.48542 -36.3445 0.487608 -59.1696 -5.17966 5.07458 0.432264 -15.6849 -3.76986 -0.0 0.0 -0.0 -1.87705 -19.9434 0.433437 -26.307 16.4768 -75.8927 0.594372 16.4064 -0.0856849 21.4488 -0.250659 2.71246 2.64899 -26.0318 -26.0829 0.0 0.0 0.0 19.8594 -18.5571 -3.99293 -11.2472 0.297259 1.6977 36.4923 -5.92772 -4.63049 2.79228 -0.0 -0.0 -0.0 0.0 -0.0 40.9439 -18.4143 -3.51387 -36.0201 0.233172 -5.43309 19.2954 -13.5759 2.65946 14.1237 -0.0 -0.0 0.0 0.0 0.0 
2845.48063204 691.475 -1901.89078932 -33.9548776948 59.4164171353 36.4302226474 6.87709 -0.33119 -1.1075 6.87774 -0.26005 -1.12633 6.88191 -0.155921 -1.1454 6.88024 -0.334847 -1.1064 -12.2954 -10.3541 -1.18332 -12.5014 -18.9064 -4.15016 -0.0 0.0 -0.0 8.02566 -12.8259 15.4615 2.17049 -32.7606 66.7318 1.48542 -36.3445 0.487608 -59.1696 -5.17966 5.07458 0.432264 -15.6849 -3.76986 -0.0 0.0 -0.0 -1.87705 -19.9434 0.433437 -26.307 16.4768 -75.8927 0.594372 16.4064 -0.0856849 21.4488 -0.250659 2.71246 2.64899 -26.0318 -26.0829 0.0 0.0 0.0 19.8594 -18.5571 -3.99293 -11.2472 0.297259 1.6977 36.4923 -5.92772 -4.63049 2.79228 -0.0 -0.0 -0.0 0.0 -0.0 40.9439 -18.4143 -3.51387 -36.0201 0.233172 -5.43309 19.2954 -13.5759 2.65946 14.1237 -0.0 -0.0 0.0 0.0 0.0 
2833.03992676 693.208 -1901.28937094 -34.9020930733 59.7077549081 37.6711798624 6.88016 -0.105393 -1.4379 6.88131 -0.0136915 -1.44169 6.88009 0.118372 -1.43689 6.87723 -0.11002 -1.43756 -12.8574 -8.3486 -1.52034 -12.9929 -14.9222 -3.9435 -0.0 0.0 -0.0 7.82432 -12.903 15.0233 4.58331 -33.0998 67.9245 1.56497 -37.7816 0.535557 -60.668 -5.36594 5.12149 0.808833 -16.4927 -1.59616 -0.0 0.0 -0.0 -1.49628 -18.7708 0.053388 -26.7442 15.08 -77.121 0.610771 16.8337 -0.0903755 18.972 -0.273867 2.39697 2.47731 -25.4413 -24.8651 0.0 0.0 0.0 20.2196 -18.7534 -3.94615 -9.97518 0.280442 1.50326 36.7843 -7.15153 -4.67867 0.407101 -0.0 -0.0 -0.0 0.0 -0.0 38.871 -19.0595 -4.62037 -18.7312 -0.308579 -2.84512 7.97444 -7.85685 1.1412 11.6034 -0.0 -0.0 0.0 0.0 0.0 
2820.45021862 690.366 -1902.50255071 -35.9632717403 60.3092027111 38.8167142884 6.89373 -0.0108014 -1.61792 6.89518 0.0921595 -1.61533 6.89064 0.23943 -1.60015 6.88707 -0.0162538 -1.61788 -13.2414 -6.97279 -1.0611 -13.3455 -12.6142 -3.1303 -0.0 0.0 -0.0 7.65774 -14.6629 14.5738 6.29482 -33.8037 67.9035 1.56169 -37.7234 0.533548 -60.9088 -5.39599 5.12857 0.963852 -16.7904 -0.68988 -0.0 0.0 -0.0 -1.05585 -16.6086 -0.301985 -27.0402 13.0559 -78.2581 0.576682 15.9433 -0.080757 16.726 -0.283106 2.11027 2.442 -25.3498 -24.6211 0.0 0.0 0.0 19.5796 -18.7501 -3.6478 -9.90966 0.279459 1.49325 36.9177 -8.15272 -4.70992 -0.370308 0.0 0.0 -0.0 0.0 -0.0 38.5813 -19.0748 -5.3165 -7.91097 -0.243974 -1.18862 2.70971 -5.89733 0.39419 11.1667 -0.0 -0.0 0.0 0.0 0.0 
2819.95355261 690.366 -1901.74140341 -36.0895999087 60.408048141 38.9620630161 6.89373 -0.0108014 -1.61792 6.89518 0.0921595 -1.61533 6.89064 0.23943 -1.60015 6.88707 -0.0162538 -1.61788 -13.2414 -6.97279 -1.0611 -13.3455 -12.6142 -3.1303 -0.0 0.0 -0.0 7.65774 -14.6629 14.5738 6.29482 -33.8037 67.9035 1.56169 -37.7234 0.533548 -60.9088 -5.39599 5.12857 0.963852 -16.7904 -0.68988 -0.0 0.0 -0.0 -1.05585 -16.6086 -0.301985 -27.0402 13.0559 -78.2581 0.576682 15.9433 -0.080757 16.726 -0.283106 2.11027 2.442 -25.3498 -24.6211 0.0 0.0 0.0 19.5796 -18.7501 -3.6478 -9.90966 0.279459 1.49325 36.9177 -8.15272 -4.70992 -0.370308 0.0 0.0 -0.0 0.0 -0.0 38.5813 -19.0748 -5.3165 -7.91097 -0.243974 -1.18862 2.70971 -5.89733 0.39419 11.1667 -0.0 -0.0 0.0 0.0 0.0 
